<?xml version="1.0" standalone="no"?><!DOCTYPE svg PUBLIC "-//W3C//DTD SVG 1.1//EN" "http://www.w3.org/Graphics/SVG/1.1/DTD/svg11.dtd"><svg t="1600405980573" class="icon" viewBox="0 0 1024 1024" version="1.1" xmlns="http://www.w3.org/2000/svg" p-id="15059" xmlns:xlink="http://www.w3.org/1999/xlink" width="200" height="200"><defs><style type="text/css"></style></defs><path d="M926.963069 131.624653H777.760184v164.123173H231.393431V131.624653H99.952795a36.234986 36.234986 0 0 0-32.682536 38.366456v815.642435a36.945476 36.945476 0 0 0 35.524496 38.366456H919.85817a36.945476 36.945476 0 0 0 35.524496-38.366456V169.991109a36.945476 36.945476 0 0 0-35.524496-38.366456h5.683919zM792.680473 454.897569L472.249516 849.219478c0 5.683919-5.683919 5.683919-10.657349 0L228.551472 660.229158c-5.683919 0-5.683919-10.657349 0-16.341268l38.366456-49.023805c0-5.683919 10.657349-5.683919 16.341268 0l175.491012 147.781904 271.407151-342.456144c0-8.525879 10.657349-8.525879 16.341269 0l44.050375 38.366456c7.815389 0 10.657349 4.973429 2.13147 16.341268zM644.898568 82.600848V49.207822A53.286744 53.286744 0 0 0 587.348884 0.184017H422.515221a53.286744 53.286744 0 0 0-57.549684 49.023805v32.682536h-67.496542v164.833663h413.505136V82.600848h-66.075563z m-142.097985 98.7581A60.391644 60.391644 0 1 1 564.613207 120.967304a57.549684 57.549684 0 0 1-58.970664 59.681154z" p-id="15060" fill="#1afa29"></path></svg>