<?xml version="1.0" standalone="no"?><!DOCTYPE svg PUBLIC "-//W3C//DTD SVG 1.1//EN" "http://www.w3.org/Graphics/SVG/1.1/DTD/svg11.dtd"><svg t="1600405695258" class="icon" viewBox="0 0 1024 1024" version="1.1" xmlns="http://www.w3.org/2000/svg" p-id="4351" xmlns:xlink="http://www.w3.org/1999/xlink" width="200" height="200"><defs><style type="text/css"></style></defs><path d="M482.976 184.288h71.104V113.088h-71.104v71.2z m150.24 0h71.136V113.088h-71.136v71.2z m142.304 0h71.2V113.088h-71.2v71.2zM860.608 10.304H89.504a88.96 88.96 0 0 0-88.96 88.96v771.04a88.96 88.96 0 0 0 88.96 88.992H597.76a296.64 296.64 0 0 1-10.88-63.264H89.504a25.728 25.728 0 0 1-25.664-25.76V255.456h822.464v323.296c21.76 0.16 42.912 2.784 63.328 7.36V99.264a89.024 89.024 0 0 0-89.024-88.96z m25.664 213.536H63.84V99.264c0-14.176 11.488-25.696 25.664-25.696h772.096c14.048 0 24.672 11.52 24.672 25.696v124.576z" p-id="4352" fill="#1296db"></path><path d="M981.92 765.216c-4.16 0-6.016 0-126.848 53.216l-1.568 0.704 16.384-134.4a16.032 16.032 0 0 0-3.392-12 15.872 15.872 0 0 0-10.816-6.144 175.232 175.232 0 0 0-195.04 152.704 173.76 173.76 0 0 0 36.032 129.088 173.6 173.6 0 0 0 116.672 65.952c7.104 0.928 14.272 1.344 21.312 1.344a175.04 175.04 0 0 0 162.336-240.288 16.224 16.224 0 0 0-15.072-10.176z m-5.92 92.512a142.72 142.72 0 0 1-158.752 124.256 141.472 141.472 0 0 1-95.04-53.664 141.536 141.536 0 0 1-29.216-105.056 142.528 142.528 0 0 1 141.28-125.376h1.152l-17.792 145.824a16.384 16.384 0 0 0 16.16 18.272 16.64 16.64 0 0 0 6.592-1.376 14090.88 14090.88 0 0 1 130.496-57.024l1.088-0.448 0.288 1.088c4.576 17.312 5.792 35.84 3.744 53.504z" p-id="4353" fill="#1296db"></path><path d="M1021.504 713.792a143.776 143.776 0 0 0-115.008-86.304 6.976 6.976 0 0 0-6.912 6.048l-16.736 135.168a6.912 6.912 0 0 0 9.504 7.232l125.504-53.056a6.624 6.624 0 0 0 3.712-3.776 6.656 6.656 0 0 0-0.064-5.312z" p-id="4354" fill="#1296db"></path><path d="M117.696 776.48H585.92v40.16H117.696zM143.648 533.536h38.848v194.72H143.648zM262.848 317.248h38.848v411.008H262.848zM382.016 416.864h38.88v311.36h-38.88zM501.248 382.112h38.848v346.144h-38.848z" p-id="4355" fill="#1296db"></path></svg>