<?xml version="1.0" standalone="no"?><!DOCTYPE svg PUBLIC "-//W3C//DTD SVG 1.1//EN" "http://www.w3.org/Graphics/SVG/1.1/DTD/svg11.dtd"><svg t="1600407264724" class="icon" viewBox="0 0 1026 1024" version="1.1" xmlns="http://www.w3.org/2000/svg" p-id="11328" xmlns:xlink="http://www.w3.org/1999/xlink" width="200.390625" height="200"><defs><style type="text/css"></style></defs><path d="M710.708306 181.046823a335.189673 335.189673 0 0 0 0 667.252349 335.189673 335.189673 0 0 0 0-667.252349z m0 587.222427a254.819751 254.819751 0 0 1 0-507.193505 254.819751 254.819751 0 0 1 0 507.193505zM44.081957 87.764914h941.239081a43.967957 43.967957 0 0 0 0-87.764914H44.081957a43.967957 43.967957 0 0 0 0 87.764914z m773.218245 387.746622h-70.302931V368.74864a36.516964 36.516964 0 1 0-72.69193 0v146.805857a38.336963 38.336963 0 0 0 36.345965 39.815961h106.591896a40.213961 40.213961 0 0 0 0-80.086922zM44.081957 321.936686h297.535709a400.089609 400.089609 0 0 1 53.409948-87.763915H44.081957a43.967957 43.967957 0 0 0 0 87.763915z m0 468.060543h351.172657a400.544609 400.544609 0 0 1-53.409948-87.764915H44.082957a43.967957 43.967957 0 0 0 0 87.764915z m941.296081 146.236857H44.081957a43.967957 43.967957 0 0 0 0 87.764914h941.239081a43.967957 43.967957 0 0 0 0-87.764914zM44.081957 555.939457h262.839743a445.592565 445.592565 0 0 1 0-87.764914H44.081957a43.967957 43.967957 0 0 0 0 87.764914z m0 0" p-id="11329" fill="#20B2AA"></path></svg>