<?xml version="1.0" standalone="no"?><!DOCTYPE svg PUBLIC "-//W3C//DTD SVG 1.1//EN" "http://www.w3.org/Graphics/SVG/1.1/DTD/svg11.dtd"><svg t="1600406855062" class="icon" viewBox="0 0 1024 1024" version="1.1" xmlns="http://www.w3.org/2000/svg" p-id="23214" xmlns:xlink="http://www.w3.org/1999/xlink" width="200" height="200"><defs><style type="text/css"></style></defs><path d="M916.83 580.1h-90.54V473.77H541.5V424.7c100.62-14.55 177.93-101.12 177.93-205.77C719.43 104.09 626.34 11 511.5 11s-207.93 93.09-207.93 207.93c0 104.65 77.31 191.22 177.93 205.77v49.07H196.71V580.1h-90.54A93.27 93.27 0 0 0 13 673.27v244.25a93.27 93.27 0 0 0 93.17 93.17h244.25a93.28 93.28 0 0 0 93.17-93.17V673.27a93.28 93.28 0 0 0-93.17-93.17h-93.71v-46.33h509.58v46.33h-93.71a93.28 93.28 0 0 0-93.17 93.17v244.25a93.28 93.28 0 0 0 93.17 93.17h244.25a93.27 93.27 0 0 0 93.17-93.17V673.27a93.27 93.27 0 0 0-93.17-93.17zM363.57 218.93a147.94 147.94 0 1 1 43.33 104.6 147 147 0 0 1-43.33-104.6z m20 454.34v244.25a33.21 33.21 0 0 1-33.17 33.17H106.17A33.21 33.21 0 0 1 73 917.52V673.27a33.21 33.21 0 0 1 33.17-33.17h244.25a33.21 33.21 0 0 1 33.17 33.17zM950 917.52a33.21 33.21 0 0 1-33.17 33.17H672.58a33.21 33.21 0 0 1-33.17-33.17V673.27a33.21 33.21 0 0 1 33.17-33.17h244.25A33.21 33.21 0 0 1 950 673.27z" p-id="23215" fill="#f4ea2a"></path></svg>